<?xml version="1.0" encoding="utf-8"?>
<!-- Generator: Adobe Illustrator 27.5.0, SVG Export Plug-In . SVG Version: 6.00 Build 0)  -->
<svg version="1.1" id="PRINT" xmlns="http://www.w3.org/2000/svg" xmlns:xlink="http://www.w3.org/1999/xlink" x="0px" y="0px"
	 viewBox="0 0 500 500" style="enable-background:new 0 0 500 500;" xml:space="preserve">
<g>
	<rect id="CUSTOM-Background" style="fill:#FFFFFF;" width="500" height="500"/>
	<g id="CUSTOM-Group">
		<g>
			<g>
				<path style="fill:#FF7D97;" d="M159.352,162.27c0.136-2.846,0.577-5.633,1.282-8.333c0.057-0.218,0.116-0.436,0.176-0.653
					c1.581-5.672,4.333-10.95,7.897-15.582c8.661-11.253,22.115-18.688,35.205-18.688c15.116,0,27.876,9.102,33.776,14.135
					c2.006,1.711,4.958,1.68,6.934-0.065c5.715-5.046,18.132-14.07,33.859-14.07c21.233,0,43.427,19.565,44.562,43.256
					c0.354,7.412-0.676,13.84-2.587,19.671c-1.539,4.696-3.648,9.006-6.076,13.121c-8.07,13.682-46.708,43.163-63.58,57.444
					c-5.583,4.726-13.763,4.725-19.344-0.004c-16.825-14.255-55.322-43.649-63.441-57.441c-3.642-6.188-6.559-12.772-7.911-20.444
					C159.431,170.8,159.139,166.717,159.352,162.27L159.352,162.27z"/>
			</g>
			<g>
				<ellipse style="fill:#FAF7F5;" cx="310.152" cy="237.138" rx="48.132" ry="48.522"/>
			</g>
			<g>
				<path style="fill:#FF9EB1;" d="M329.482,227.307H319.9v-9.666c0-2.73-2.195-4.943-4.903-4.943h-9.69
					c-2.708,0-4.903,2.213-4.903,4.943v9.666h-9.582c-2.708,0-4.903,2.213-4.903,4.943v9.776c0,2.73,2.195,4.943,4.903,4.943h9.582
					v9.666c0,2.73,2.195,4.943,4.903,4.943h9.69c2.708,0,4.903-2.213,4.903-4.943v-9.666h9.582c2.708,0,4.903-2.213,4.903-4.943
					v-9.776C334.385,229.52,332.19,227.307,329.482,227.307z"/>
			</g>
		</g>
		<g>
			<g>
				<g>
					<path style="fill:#E83559;" d="M156.953,155.316c0.629,1.533,2.199,2.549,3.856,2.492c1.671-0.058,3.142-1.165,3.689-2.737
						c0.545-1.566,0.014-3.366-1.26-4.414c-1.337-1.1-3.289-1.213-4.745-0.274C156.877,151.423,156.213,153.539,156.953,155.316
						L156.953,155.316z"/>
					<path style="fill:#E83559;" d="M323.201,186.244c0.396-1.019,0.76-2.036,1.091-3.047c2.228-6.796,3.138-13.704,2.783-21.121
						c-0.588-12.285-6.274-24.096-16.009-33.258c-9.347-8.796-21.223-13.84-32.583-13.84c-16.925,0-30.152,9.448-36.53,15.081
						c-0.475,0.419-1.166,0.428-1.644,0.02c-6.611-5.64-20.13-15.1-36.395-15.1c-13.44,0-27.747,7.251-37.338,18.924
						c-1.415,1.722-1.166,4.265,0.556,5.68c1.722,1.415,4.265,1.166,5.68-0.556c8.098-9.855,20.016-15.977,31.102-15.977
						c13.676,0,25.391,8.251,31.156,13.17c3.508,2.993,8.764,2.945,12.225-0.11c5.523-4.877,16.92-13.06,31.188-13.06
						c18.241,0,39.45,16.855,40.53,39.413c0.307,6.416-0.476,12.376-2.391,18.221c-0.454,1.384-0.965,2.749-1.546,4.128
						c-1.621-0.154-3.263-0.232-4.923-0.232c-28.765,0-52.167,23.577-52.167,52.558c0,1.37,0.052,2.729,0.155,4.073
						c-3.992,3.255-7.236,5.921-9.947,8.215c-4.094,3.466-10.036,3.465-14.129-0.002c-3.662-3.102-8.423-6.982-13.463-11.089
						c-18.193-14.825-43.11-35.129-49.108-45.319c-3.943-6.7-6.3-12.768-7.415-19.097c-0.129-0.732-0.243-1.475-0.338-2.211
						c-0.287-2.21-2.311-3.77-4.521-3.483c-2.21,0.287-3.77,2.312-3.483,4.521c0.111,0.856,0.244,1.722,0.394,2.573
						c1.288,7.309,3.96,14.233,8.408,21.79c6.732,11.439,31.258,31.424,50.965,47.482c5.01,4.082,9.742,7.938,13.345,10.991
						c3.559,3.015,7.92,4.522,12.283,4.522c4.36,0,8.72-1.506,12.278-4.517c1.812-1.534,3.877-3.245,6.257-5.197
						c5.845,22.586,26.265,39.306,50.488,39.306c28.765,0,52.167-23.577,52.167-52.558
						C362.319,212.695,345.672,192.095,323.201,186.244L323.201,186.244z M310.153,281.624c-24.315,0-44.097-19.957-44.097-44.487
						c0-24.53,19.782-44.487,44.097-44.487c24.315,0,44.096,19.957,44.096,44.487C354.248,261.668,334.467,281.624,310.153,281.624z
						"/>
					<path style="fill:#E83559;" d="M329.482,223.272h-5.546v-5.63c0-4.951-4.01-8.978-8.938-8.978h-9.69
						c-4.929,0-8.938,4.027-8.938,8.978v5.63h-5.546c-4.928,0-8.938,4.027-8.938,8.978v9.776c0,4.951,4.01,8.978,8.938,8.978h5.546
						v5.631c0,4.95,4.01,8.978,8.938,8.978h9.69c4.928,0,8.938-4.027,8.938-8.978v-5.631h5.546c4.928,0,8.938-4.027,8.938-8.978
						v-9.776C338.42,227.299,334.41,223.272,329.482,223.272z M330.349,242.025c0,0.5-0.389,0.907-0.867,0.907H319.9
						c-2.228,0-4.035,1.807-4.035,4.036v9.666c0,0.5-0.389,0.907-0.867,0.907h-9.69c-0.479,0-0.867-0.407-0.867-0.907v-9.666
						c0-2.229-1.807-4.036-4.035-4.036h-9.582c-0.479,0-0.867-0.407-0.867-0.907v-9.776c0-0.5,0.389-0.907,0.867-0.907h9.582
						c2.228,0,4.035-1.807,4.035-4.035v-9.666c0-0.5,0.389-0.907,0.867-0.907h9.69c0.478,0,0.867,0.407,0.867,0.907v9.666
						c0,2.229,1.807,4.035,4.035,4.035h9.582c0.479,0,0.867,0.407,0.867,0.907V242.025z"/>
				</g>
			</g>
		</g>
	</g>
	<text transform="matrix(1 0 0 1 153.9766 377.3664)" style="fill:#E83559; font-family:'Nunito-Bold'; font-size:27.8373px;">Your Health App</text>
	<text transform="matrix(1 0 0 1 122.7009 346.7475)" style="fill:#FF7D97; font-family:'Nunito-ExtraBold'; font-size:57.5634px;">MEDICARE</text>
</g>
</svg>
